<svg width="341" height="144" viewBox="0 0 341 144" fill="none" xmlns="http://www.w3.org/2000/svg">
<path d="M69.91 3.14754V140.852H23.5652V38.1639H0V3.14754H69.91Z" fill="url(#paint0_linear_825_652)"/>
<path d="M149.043 144C136.868 144 126.067 141.18 116.641 135.541C107.346 129.77 100.015 121.508 94.6473 110.754C89.4106 99.8688 86.7922 86.9508 86.7922 72C86.7922 57.0492 89.4106 44.1967 94.6473 33.4426C100.015 22.5574 107.346 14.2951 116.641 8.65573C126.067 2.88524 136.868 0 149.043 0C161.219 0 171.954 2.88524 181.249 8.65573C190.675 14.2951 198.007 22.5574 203.243 33.4426C208.611 44.1967 211.295 57.0492 211.295 72C211.295 86.9508 208.611 99.8688 203.243 110.754C198.007 121.508 190.675 129.77 181.249 135.541C171.954 141.18 161.219 144 149.043 144ZM149.043 106.82C159.517 106.82 164.754 95.2131 164.754 72C164.754 48.7869 159.517 37.1803 149.043 37.1803C138.57 37.1803 133.333 48.7869 133.333 72C133.333 95.2131 138.57 106.82 149.043 106.82Z" fill="url(#paint1_linear_825_652)"/>
<path d="M256.733 77.9016C245.998 77.9016 237.226 74.4918 230.418 67.6721C223.611 60.8525 220.207 51.4754 220.207 39.541C220.207 31.541 221.778 24.6557 224.92 18.8852C228.062 13.1148 232.382 8.72131 237.881 5.70491C243.51 2.68852 249.794 1.18032 256.733 1.18032C263.672 1.18032 269.89 2.68852 275.389 5.70491C281.018 8.72131 285.404 13.1148 288.546 18.8852C291.688 24.6557 293.259 31.541 293.259 39.541C293.259 51.4754 289.855 60.8525 283.047 67.6721C276.24 74.4918 267.468 77.9016 256.733 77.9016ZM337.444 3.14754H370.631L276.763 140.852H243.576L337.444 3.14754ZM256.733 56.6557C259.22 56.6557 261.25 55.3443 262.821 52.7213C264.523 49.9672 265.373 45.5738 265.373 39.541C265.373 33.5082 264.523 29.1803 262.821 26.5574C261.25 23.8033 259.22 22.4262 256.733 22.4262C254.245 22.4262 252.151 23.8033 250.449 26.5574C248.878 29.1803 248.092 33.5082 248.092 39.541C248.092 45.5738 248.878 49.9672 250.449 52.7213C252.151 55.3443 254.245 56.6557 256.733 56.6557ZM357.474 142.82C346.739 142.82 337.967 139.41 331.16 132.59C324.352 125.77 320.948 116.393 320.948 104.459C320.948 96.459 322.519 89.5738 325.661 83.8033C328.803 78.0328 333.123 73.6393 338.622 70.6229C344.251 67.6066 350.535 66.0984 357.474 66.0984C364.413 66.0984 370.631 67.6066 376.13 70.6229C381.759 73.6393 386.145 78.0328 389.287 83.8033C392.429 89.5738 394 96.459 394 104.459C394 116.393 390.596 125.77 383.788 132.59C376.981 139.41 368.209 142.82 357.474 142.82ZM357.474 121.574C359.961 121.574 361.991 120.262 363.562 117.639C365.264 114.885 366.115 110.492 366.115 104.459C366.115 98.4262 365.264 94.0983 363.562 91.4754C361.991 88.7213 359.961 87.3443 357.474 87.3443C354.987 87.3443 352.892 88.7213 351.19 91.4754C349.619 94.0983 348.833 98.4262 348.833 104.459C348.833 110.492 349.619 114.885 351.19 117.639C352.892 120.262 354.987 121.574 357.474 121.574Z" fill="url(#paint2_linear_825_652)"/>
<defs>
<linearGradient id="paint0_linear_825_652" x1="197" y1="0" x2="197" y2="144" gradientUnits="userSpaceOnUse">
<stop stop-color="#F1F6FF"/>
<stop offset="0.0001" stop-color="#F2F6FF"/>
<stop offset="1" stop-color="#F2F6FF" stop-opacity="0"/>
</linearGradient>
<linearGradient id="paint1_linear_825_652" x1="197" y1="0" x2="197" y2="144" gradientUnits="userSpaceOnUse">
<stop stop-color="#F1F6FF"/>
<stop offset="0.0001" stop-color="#F2F6FF"/>
<stop offset="1" stop-color="#F2F6FF" stop-opacity="0"/>
</linearGradient>
<linearGradient id="paint2_linear_825_652" x1="197" y1="0" x2="197" y2="144" gradientUnits="userSpaceOnUse">
<stop stop-color="#F1F6FF"/>
<stop offset="0.0001" stop-color="#F2F6FF"/>
<stop offset="1" stop-color="#F2F6FF" stop-opacity="0"/>
</linearGradient>
</defs>
</svg>
