<svg width="46" height="50" viewBox="0 0 46 50" fill="none" xmlns="http://www.w3.org/2000/svg">
<path d="M45.4715 48.9518L39.0775 24.9752C39.8921 24.8543 40.4963 24.1569 40.5 23.3333V20C40.5 19.0796 39.7537 18.3333 38.8333 18.3333H28V15.8333C28 15.3731 27.6269 15 27.1667 15H26.3333V0.833333C26.3333 0.373128 25.9602 0 25.5 0H20.5C20.0398 0 19.6667 0.373128 19.6667 0.833333V15H18.8333C18.3731 15 18 15.3731 18 15.8333V18.3333H7.16666C6.24625 18.3333 5.5 19.0796 5.5 20V23.3333C5.50325 24.1569 6.10791 24.8543 6.92252 24.9752L0.528074 48.9518C0.461342 49.2017 0.514646 49.469 0.672523 49.6741C0.829994 49.8796 1.07413 50 1.33333 50H4.66666C5.00765 50 5.31404 49.7925 5.44059 49.4759L6.33333 47.2432L7.22566 49.4759C7.35221 49.7925 7.65901 50 8 50H11.3333C11.6743 50 11.9807 49.7925 12.1073 49.4759L13 47.2432L13.8923 49.4759C14.0189 49.7925 14.3257 50 14.6667 50H18C18.341 50 18.6474 49.7925 18.7739 49.4759L19.6667 47.2432L20.559 49.4759C20.6855 49.7925 20.9923 50 21.3333 50H24.6667C25.0076 50 25.314 49.7925 25.4406 49.4759L26.3333 47.2432L27.2257 49.4759C27.3522 49.7925 27.659 50 28 50H31.3333C31.6743 50 31.9807 49.7925 32.1073 49.4759L33 47.2432L33.8923 49.4759C34.0189 49.7925 34.3257 50 34.6667 50H38C38.341 50 38.6474 49.7925 38.7739 49.4759L39.6667 47.2432L40.559 49.4759C40.6855 49.7925 40.9923 50 41.3333 50H44.6667C44.9255 50 45.1696 49.8796 45.3275 49.6741C45.4849 49.469 45.5382 49.2017 45.4715 48.9518ZM21.3333 1.66667H24.6667V15H21.3333V1.66667ZM19.6667 16.6667H26.3333V18.3333H19.6667V16.6667ZM7.16666 20H38.8333V23.3333H7.16666V20ZM41.8973 48.3333L40.4597 44.74L38.8081 38.1315C38.6885 37.6949 38.2421 37.4341 37.8027 37.5435C37.3636 37.653 37.0922 38.0933 37.1915 38.5352L38.793 44.9402L37.4356 48.3333H35.2306L33.8142 44.7892L32.9939 38.23C32.9272 37.7824 32.5154 37.4699 32.0666 37.526C31.6173 37.5822 31.2951 37.9862 31.3407 38.4367L32.1475 44.8901L30.769 48.3333H28.564L27.1667 44.8393V38.3333C27.1667 37.8731 26.7935 37.5 26.3333 37.5C25.8731 37.5 25.5 37.8731 25.5 38.3333V44.8393L24.1023 48.3333H21.8973L20.5 44.8393V38.3333C20.5 37.8731 20.1269 37.5 19.6667 37.5C19.2065 37.5 18.8333 37.8731 18.8333 38.3333V44.8393L17.4356 48.3333H15.2306L13.8533 44.8901L14.6597 38.4367C14.7053 37.9862 14.3831 37.5822 13.9342 37.526C13.485 37.4699 13.0732 37.7824 13.0065 38.23L12.1866 44.7892L10.769 48.3333H8.56396L7.20654 44.9402L8.8081 38.5352C8.88826 38.2434 8.80403 37.9313 8.58797 37.7197C8.37231 37.5081 8.05859 37.4296 7.76888 37.5155C7.47876 37.6009 7.25781 37.8369 7.19148 38.1315L5.53987 44.74L4.10229 48.3333H2.4165L8.63924 25H37.3591L43.5831 48.3333H41.8973Z" fill="#1F56D5"/>
</svg>
