<svg width="46" height="50" viewBox="0 0 46 50" fill="none" xmlns="http://www.w3.org/2000/svg">
<path d="M15.6758 50C18.2873 50 20.8785 49.3154 23.1693 48.0202C23.6389 47.7548 23.8042 47.159 23.5388 46.6895C23.2732 46.2198 22.6772 46.0547 22.208 46.32C20.21 47.4497 17.9512 48.0469 15.6758 48.0469C8.26484 48.0469 2.00391 41.6518 2.00391 34.082C2.00391 30.7324 3.2127 27.0332 5.32041 23.9328C9.0833 18.3971 12.5619 11.5979 15.6767 3.69551C17.7035 8.82051 20.6397 15.3626 24.38 21.3878C17.4187 21.4337 11.7695 27.1103 11.7695 34.082C11.7695 34.6214 12.2068 35.0586 12.7461 35.0586C13.2854 35.0586 13.7227 34.6214 13.7227 34.082C13.7227 28.1588 18.5416 23.3398 24.4648 23.3398C24.8408 23.3398 25.2164 23.3158 25.5884 23.273C26.9857 25.3783 28.1015 27.2049 28.8421 30.1758H27.3945C23.6251 30.1758 20.5586 33.2424 20.5586 37.0117C20.5586 37.5511 20.9959 37.9883 21.5352 37.9883C22.0744 37.9883 22.5117 37.5511 22.5117 37.0117C22.5117 34.3193 24.7022 32.1289 27.3945 32.1289H29.2162C29.303 32.7894 29.3477 33.4436 29.3477 34.082C29.3477 36.2701 28.8203 38.4642 27.8225 40.4269C27.578 40.9076 27.7696 41.4955 28.2505 41.7399C28.7312 41.9845 29.3191 41.7929 29.5635 41.312C30.7001 39.0764 31.3008 36.5763 31.3008 34.082C31.3008 33.4314 31.2603 32.7678 31.1811 32.0993C37.7832 31.6571 43.0195 26.1458 43.0195 19.4336V18.8615L44.2821 20.1241C44.6636 20.5055 45.2817 20.5055 45.6633 20.1241C46.0446 19.7428 46.0446 19.1244 45.6633 18.743L42.7336 15.8133C42.3521 15.4319 41.734 15.4319 41.3524 15.8133L38.4228 18.743C38.0414 19.1243 38.0414 19.7427 38.4228 20.1241C38.8042 20.5055 39.4224 20.5055 39.8039 20.1241L41.0664 18.8615V19.4336C41.0664 25.182 36.5277 29.8899 30.8458 30.1629C30.2705 27.5999 29.1736 25.0811 27.6449 22.8324C27.6405 22.8259 27.6363 22.8197 27.6319 22.8132C31.5279 21.484 34.2305 17.8017 34.2305 13.5742V7.14277L35.4931 8.40537C35.8745 8.78672 36.4927 8.78672 36.8742 8.40537C37.2556 8.02402 37.2556 7.40566 36.8742 7.02422L33.9445 4.09453C33.5631 3.71318 32.9449 3.71318 32.5634 4.09453L29.6337 7.02422C29.2523 7.40557 29.2523 8.02393 29.6337 8.40537C30.0151 8.78672 30.6333 8.78672 31.0148 8.40537L32.2773 7.14277V13.5742C32.2773 17.1292 29.8899 20.2027 26.5149 21.1141C22.0225 14.0654 18.6552 6.13936 16.6007 0.661133C16.5931 0.651367 16.3904 0.00380859 15.681 0C15.6792 0 15.6775 0 15.6757 0C15.2749 0 14.9146 0.24502 14.7673 0.618262C14.2462 1.82256 10.3679 13.0329 3.70518 22.8348C1.38281 26.2511 0.0507812 30.3505 0.0507812 34.082C0.0507812 42.7302 7.04746 50 15.6758 50Z" fill="#1F56D5"/>
</svg>
