<svg width="50" height="36" viewBox="0 0 50 36" fill="none" xmlns="http://www.w3.org/2000/svg">
<path d="M49.3648 15.3047L43.6243 8.83984C43.1487 8.3043 42.4663 7.99853 41.7501 8H34.1667V3C34.1652 1.61992 33.0468 0.501465 31.6667 0.5H2.5C1.11992 0.501465 0.00146397 1.61992 -8.72291e-07 3V24.6667C-9.85285e-05 24.8877 0.0876944 25.0997 0.244042 25.2561C0.400292 25.4123 0.612304 25.5001 0.833398 25.5001H1.6667V28.0001C1.66816 29.3802 2.78662 30.4986 4.1667 30.5001H5.8999C6.31064 33.3692 8.76826 35.5001 11.6667 35.5001C14.5651 35.5001 17.0228 33.3692 17.4335 30.5001H32.5667C32.9774 33.3692 35.4351 35.5001 38.3335 35.5001C41.2319 35.5001 43.6896 33.3692 44.1003 30.5001H47.5C48.8801 30.4986 49.9985 29.3802 50 28.0001V16.9665C49.9994 16.3533 49.7733 15.7619 49.3648 15.3047ZM1.6667 23.8333V3C1.66719 2.53994 2.03994 2.16709 2.5 2.1667H31.6667C32.1268 2.16719 32.4996 2.53994 32.5 3V23.8333H1.6667ZM5.8999 28.8333H4.1667C3.70664 28.8328 3.33379 28.4601 3.3334 28V25.5H7.59219C6.67676 26.3947 6.08193 27.5663 5.8999 28.8333ZM11.6667 33.8333C9.36553 33.8333 7.5 31.9678 7.5 29.6666C7.5 27.3654 9.36553 25.5 11.6667 25.5C13.9679 25.5 15.8334 27.3655 15.8334 29.6667C15.8307 31.9667 13.9667 33.8307 11.6667 33.8333ZM20 28.8333H17.4334C17.2514 27.5663 16.6566 26.3946 15.7412 25.5H20V28.8333ZM27.5 28.8333H21.6667V25.5H27.5V28.8333ZM32.5666 28.8333H29.1667V25.5H34.2588C33.3434 26.3947 32.7486 27.5663 32.5666 28.8333ZM38.3333 33.8333C36.0321 33.8333 34.1666 31.9678 34.1666 29.6666C34.1666 27.3654 36.032 25.4999 38.3333 25.4999C40.6345 25.4999 42.5 27.3654 42.5 29.6666C42.4973 31.9667 40.6334 33.8307 38.3333 33.8333ZM48.3333 28C48.3328 28.4601 47.9601 28.8329 47.5 28.8333H44.1001C43.6846 25.9668 41.2299 23.8385 38.3333 23.8333H34.1666V9.6667H37.5V18C37.5015 19.3801 38.6199 20.4985 40 20.5H48.3333V28ZM48.3333 18.8333H40C39.5399 18.8328 39.1671 18.4601 39.1667 18V9.6667H41.7501C41.9894 9.66533 42.2177 9.7667 42.3771 9.94502L48.1197 16.4123C48.2564 16.5646 48.3324 16.7618 48.3334 16.9665V18.8333H48.3333Z" fill="#1F56D5"/>
</svg>
